<svg data-v-48faa7cd="" version="1.0" xmlns="http://www.w3.org/2000/svg" width="100%" height="100%" viewBox="0 0 340.000000 250.000000" preserveAspectRatio="xMidYMid meet" color-interpolation-filters="sRGB" class="el-tooltip" style="margin: auto;"><g data-v-48faa7cd="" fill="#2d9de2" class="iconsvg" transform="translate(111.67953109741211,59.978973388671875)"><g class="iconsvg-imagesvg" transform="translate(28.32046890258789,0)"><rect fill="#2d9de2" fill-opacity="0" x="0" y="0" width="60" height="41.734411836435"></rect> <svg x="0" y="0" width="60" height="41.734411836435" class="imagesvg-svg"><svg xmlns="http://www.w3.org/2000/svg" viewBox="0 0 492.04 342.25"><defs><clipPath id="a2a41c2c7-42ac-49e0-80c2-eb9fb08dcd7d"><path fill="none" d="M.05.04H492.1v342.64H.05z"></path></clipPath></defs><g><g><g clip-path="url(#a2a41c2c7-42ac-49e0-80c2-eb9fb08dcd7d)" fill="#2d9de2"><path d="M0 202.09c0 77.28 62.88 140.16 140.16 140.16h127l-89.76-89.77q-4.9-4.9-9.35-10.21c-1-1.21-1.9-2.47-2.87-3.7-1.87-2.35-3.72-4.68-5.44-7.12-1.07-1.51-2-3.07-3-4.62-1.45-2.23-2.93-4.45-4.26-6.74-1-1.69-1.86-3.41-2.77-5.12q-1.81-3.3-3.46-6.69c-.84-1.8-1.62-3.63-2.4-5.46-1-2.25-1.92-4.48-2.77-6.75-.71-1.89-1.35-3.79-2-5.72q-2.1-6.27-3.65-12.71t-2.6-12.92q-.56-3.5-.93-7-.34-3-.58-6-.24-3.56-.32-7.11-.1-3-.1-6c0-2.42.14-4.81.28-7.23.12-2 .2-3.94.38-5.9.24-2.46.59-4.92.93-7.37.27-1.91.49-3.8.84-5.71.45-2.56 1-5.09 1.63-7.63.4-1.76.75-3.54 1.21-5.3.75-2.79 1.65-5.53 2.53-8.28.5-1.49.9-3 1.42-4.46 1.35-3.72 2.86-7.41 4.5-11 .2-.46.35-.94.57-1.4q2.76-6 6-11.86c-3.67-.29-7.34-.44-11-.43C62.88 61.93 0 124.8 0 202.09M207.26 58.13c1.45.68 2.84 1.41 4.26 2.11q5.92 3 11.59 6.41c2.26 1.41 4.5 2.84 6.69 4.36 1.36.91 2.73 1.86 4.08 2.83 2.22 1.63 4.37 3.34 6.51 5.07 1.16 1 2.36 1.89 3.51 2.85q3.79 3.31 7.39 6.87c.62.6 1.28 1.16 1.9 1.78 2.95 3 5.79 6.12 8.49 9.35.79.91 1.51 1.9 2.25 2.84 1.92 2.36 3.76 4.74 5.51 7.21.92 1.28 1.79 2.62 2.68 3.92A155.73 155.73 0 0 1 288 144.06c.55 1.39 1.12 2.77 1.64 4.19 1.18 3.27 2.23 6.6 3.18 10 .24.77.52 1.53.73 2.32 1.13 4.16 2.07 8.41 2.86 12.71.21 1.16.33 2.34.52 3.51.42 2.53.87 5.06 1.15 7.64.44-.71.93-1.37 1.39-2.06l1.27-1.9c1.85-2.68 3.79-5.31 5.87-7.84l.47-.53c2-2.36 4-4.64 6.2-6.82l1.58-1.6c2.3-2.25 4.67-4.45 7.16-6.51.38-.33.79-.62 1.19-.93 2.24-1.83 4.55-3.54 6.92-5.2.58-.4 1.14-.8 1.73-1.18 2.67-1.8 5.43-3.48 8.25-5l1.76-.91q3.82-2 7.78-3.75c.54-.24 1.06-.5 1.61-.72 3-1.27 6.09-2.39 9.23-3.39l2.15-.65c2.9-.87 5.87-1.64 8.87-2.29.39-.07.76-.18 1.15-.26 3.29-.67 6.63-1.16 10-1.54l2.39-.24c3.49-.32 7-.5 10.49-.52a114.66 114.66 0 0 1 13.86.92c2.85.33 5.68.79 8.51 1.35.8.17 1.6.28 2.39.47 3.17.71 6.32 1.51 9.44 2.49A140.11 140.11 0 0 0 183.1 49.16c4.12 1.14 8.17 2.48 12.14 3.94 1.13.42 2.21.91 3.32 1.35 2.95 1.15 5.85 2.36 8.7 3.68"></path></g><path d="M280.33 202.09c0-4.19-.2-8.32-.57-12.41-.12-1.41-.36-2.74-.53-4.11-.31-2.7-.61-5.4-1.07-8-.28-1.61-.7-3.15-1-4.74-.51-2.36-1-4.74-1.59-7.07-.45-1.67-1-3.29-1.53-4.92-.66-2.18-1.29-4.39-2.07-6.53-.62-1.65-1.33-3.27-2-4.92-.83-2-1.62-4.07-2.53-6.08-.78-1.63-1.65-3.22-2.46-4.83-1-1.91-1.93-3.83-3-5.69-.9-1.6-1.89-3.12-2.86-4.67-1.13-1.8-2.21-3.6-3.39-5.34-1.06-1.52-2.18-3-3.29-4.46-1.25-1.65-2.48-3.34-3.8-4.94-1.18-1.45-2.43-2.82-3.65-4.22-1.38-1.55-2.74-3.09-4.18-4.57s-2.67-2.64-4-3.94-3-2.82-4.53-4.17c-1.4-1.25-2.9-2.43-4.37-3.61s-3.21-2.55-4.85-3.77-3.12-2.2-4.71-3.25-3.43-2.28-5.19-3.36-3.3-1.94-5-2.85q-5.22-2.93-10.72-5.35a134.91 134.91 0 0 0-23-7.95l-3.21-.74c-.59 1-1.21 1.88-1.77 2.82a138.39 138.39 0 0 0-18.26 50.4c-.33 2.06-.55 4.13-.78 6.2-.19 1.85-.42 3.71-.54 5.56-.15 2.08-.19 4.15-.24 6.23 0 1.86-.1 3.71-.07 5.55 0 2.11.16 4.18.29 6.26.11 1.84.2 3.68.38 5.51.2 2.08.52 4.16.83 6.24.25 1.82.49 3.63.83 5.43.38 2.08.88 4.15 1.38 6.21.4 1.76.77 3.53 1.26 5.29.56 2.08 1.27 4.12 1.91 6.19.57 1.68 1.07 3.41 1.69 5.1.76 2.05 1.66 4.08 2.5 6.11.71 1.62 1.33 3.27 2.08 4.88 1 2.06 2.07 4.05 3.14 6.06.79 1.52 1.55 3.08 2.39 4.57 1.21 2.08 2.57 4.08 3.88 6.12.88 1.36 1.69 2.75 2.63 4.09 1.54 2.2 3.23 4.33 4.92 6.45.84 1.08 1.64 2.21 2.53 3.28 2.64 3.14 5.43 6.21 8.39 9.17L280.31 329V202zm116.79 28c.89-1.05 1.68-2.17 2.53-3.23 1.69-2.16 3.38-4.32 5-6.54.93-1.37 1.76-2.77 2.67-4.15 1.31-2.05 2.67-4.1 3.87-6.21.87-1.52 1.64-3.1 2.46-4.64 1.08-2.05 2.18-4.12 3.16-6.23.75-1.64 1.41-3.3 2.11-5 .89-2.11 1.76-4.2 2.53-6.34.62-1.72 1.17-3.48 1.73-5.23.68-2.15 1.34-4.3 1.91-6.49a154.16 154.16 0 0 0 3.45-17.55c.14-1.05.22-2.13.33-3.2-.63-.24-1.25-.52-1.89-.73-3-1-6.11-1.93-9.23-2.69a65.98 65.98 0 0 0-3.38-.77q-3.18-.62-6.37-1c-1-.14-2-.31-3-.43a99.3 99.3 0 0 0-9.44-.49A96.63 96.63 0 0 0 299 245.73V329l89.76-89.77c2.94-3 5.71-6 8.35-9.16" fill="#7ac3f4"></path><path d="M492 245.73A96.64 96.64 0 0 0 446.69 164v.11c-.07.48-.18.94-.26 1.42q-1 6-2.38 11.89c-.35 1.52-.83 3-1.24 4.53-.77 2.85-1.57 5.69-2.5 8.5-.56 1.69-1.21 3.35-1.83 5q-2.38 6.45-5.34 12.65-1.73 3.67-3.65 7.24-3.25 6.12-7.07 11.88c-1 1.46-1.89 2.94-2.9 4.38-1.76 2.48-3.63 4.9-5.54 7.31-.93 1.15-1.8 2.34-2.74 3.48-2.93 3.47-6 6.86-9.22 10.1l-89.77 89.77h83.3A96.63 96.63 0 0 0 492 245.73" fill="#2d9de2"></path></g></g></svg></svg> <!----></g> <g transform="translate(0,48.7380485534668)"><g class="iconsvg-namesvg" transform="translate(0.00031280517578125,0)"><g><path transform="translate(-2.72,26.68)" d="M18.72-26.68L24.36-26.68L24.36 0L18.72 0L18.72-11.04L8.40-11.04L8.40 0L2.72 0L2.72-26.68L8.40-26.68L8.40-15.80L18.72-15.80L18.72-26.68ZM34.32-11.84L45.60-11.84L45.60-7.68L34.32-7.68L34.32-7.68Q34.48-5.76 35.56-4.96L35.56-4.96L35.56-4.96Q36.64-4.16 39.08-4.16L39.08-4.16L45.60-4.16L45.60 0L38.48 0L38.48 0Q36.16 0 34.70-0.42L34.70-0.42L34.70-0.42Q33.24-0.84 31.96-1.80L31.96-1.80L31.96-1.80Q28.40-4.56 28.40-10L28.40-10L28.40-10Q28.40-13.52 30.28-16.16L30.28-16.16L30.28-16.16Q31.56-17.96 33.36-18.72L33.36-18.72L33.36-18.72Q35.16-19.48 38.08-19.48L38.08-19.48L45.60-19.48L45.60-15.32L38.48-15.32L38.48-15.32Q36.28-15.32 35.40-14.58L35.40-14.58L35.40-14.58Q34.52-13.84 34.32-11.84L34.32-11.84ZM58.32-4.16L62.72-4.16L62.72-19.48L68.08-19.48L68.08-0.40L68.08-0.40Q68.08 3.40 66.08 5.16L66.08 5.16L66.08 5.16Q64.08 6.92 59.72 6.92L59.72 6.92L50.16 6.92L50.16 2.76L59.72 2.76L59.72 2.76Q61.44 2.76 61.96 2.40L61.96 2.40L61.96 2.40Q62.36 2.16 62.48 1.78L62.48 1.78L62.48 1.78Q62.60 1.40 62.72 0L62.72 0L57.96 0L57.96 0Q49.72 0.20 50.16-8.60L50.16-8.60L50.16-19.48L55.52-19.48L55.52-9.12L55.52-9.12Q55.52-6.08 56.06-5.12L56.06-5.12L56.06-5.12Q56.60-4.16 58.32-4.16L58.32-4.16ZM72.68-26.68L78.32-26.68L78.32-10.68L78.32-10.68Q78.32-8.76 78.64-7.70L78.64-7.70L78.64-7.70Q78.96-6.64 79.72-5.88L79.72-5.88L79.72-5.88Q81.40-4.24 84.40-4.24L84.40-4.24L84.40-4.24Q86.32-4.24 87.74-4.90L87.74-4.90L87.74-4.90Q89.16-5.56 89.72-6.68L89.72-6.68L89.72-6.68Q90.28-7.80 90.28-10.68L90.28-10.68L90.28-26.68L95.96-26.68L95.96-10.96L95.96-10.96Q95.96-7.84 95.30-5.82L95.30-5.82L95.30-5.82Q94.64-3.80 93.28-2.56L93.28-2.56L93.28-2.56Q90.12 0.20 84.32 0.20L84.32 0.20L84.32 0.20Q78.12 0.20 75.28-2.52L75.28-2.52L75.28-2.52Q73.80-3.92 73.24-5.66L73.24-5.66L73.24-5.66Q72.68-7.40 72.68-10.56L72.68-10.56L72.68-26.68ZM106.80 0L101.12 0L101.12-26.68L106.80-26.68L106.80 0Z"></path></g> <g transform="translate(0,36.599998474121094)"><path transform="translate(-0.12,26.68)" d="M6.76 0L0.12 0L11.16-26.68L17.68-26.68L28.72 0L22.08 0L19.48-6.16L9.36-6.16L6.76 0ZM18.24-10.92L14.44-20.24L10.64-10.92L18.24-10.92ZM39.52-19.48L44.56-19.48L44.56-26.68L49.88-26.68L49.88 0L40.68 0L40.68 0Q37.88 0 36.44-0.44L36.44-0.44L36.44-0.44Q33.04-1.52 31.36-4.68L31.36-4.68L31.36-4.68Q30.20-6.80 30.20-9.88L30.20-9.88L30.20-9.88Q30.20-14.88 33.56-17.64L33.56-17.64L33.56-17.64Q35.76-19.48 39.52-19.48L39.52-19.48ZM40.68-4.16L44.56-4.16L44.56-15.32L40.68-15.32L40.68-15.32Q38.12-15.32 36.80-13.60L36.80-13.60L36.80-13.60Q35.64-12.16 35.64-9.88L35.64-9.88L35.64-9.88Q35.64-6.56 37.56-5.12L37.56-5.12L37.56-5.12Q38.88-4.16 40.68-4.16L40.68-4.16ZM55.12 0L55.12-19.48L74.80-19.48L74.80-19.48Q77.48-19.48 78.88-19.08L78.88-19.08L78.88-19.08Q80.28-18.68 81.24-17.68L81.24-17.68L81.24-17.68Q83-15.76 83-12.40L83-12.40L83 0L77.64 0L77.64-11.56L77.64-11.56Q77.64-12.96 77.52-13.52L77.52-13.52L77.52-13.52Q77.40-14.08 76.96-14.52L76.96-14.52L76.96-14.52Q76.12-15.32 74.44-15.32L74.44-15.32L71.60-15.32L71.60 0L66.24 0L66.24-15.32L60.48-15.32L60.48 0L55.12 0ZM88 0L88-19.48L93.36-19.48L93.36 0L88 0ZM93.36-21.48L88-21.48L88-26.68L93.36-26.68L93.36-21.48ZM98.64 0L98.64-19.48L108.96-19.48L108.96-19.48Q111.28-19.48 112.50-19.14L112.50-19.14L112.50-19.14Q113.72-18.80 114.72-17.92L114.72-17.92L114.72-17.92Q116.76-16.04 116.76-12L116.76-12L116.76 0L111.40 0L111.40-12.60L111.40-12.60Q111.40-14.04 110.76-14.68L110.76-14.68L110.76-14.68Q110.12-15.32 108.64-15.32L108.64-15.32L104-15.32L104 0L98.64 0Z"></path></g></g> <g fill="#7ac3f4" class="iconsvg-slogansvg" transform="translate(0,70.27999877929688)"><!----> <rect fill-opacity="0" x="75.05000305175781" height="1" y="5.011739253997803" width="41.589996337890625"></rect> <!----> </g></g></g></svg>